<svg width="350" height="271" viewBox="0 0 350 271" fill="none" xmlns="http://www.w3.org/2000/svg">
<path d="M309.439 167.905L303.849 102.697C301.243 72.2962 277.049 48.2324 246.636 45.7914L88.342 33.0848C56.6869 30.5447 28.1682 52.1674 22.0707 83.3335L4.93186 170.939C-2.87617 210.845 28.9399 247.449 69.5441 245.276L191.788 238.733L214.573 268.605L228.606 236.762L250.567 235.586C285.782 233.7 312.449 203.041 309.439 167.905Z" stroke="#00BF62" stroke-width="2" stroke-miterlimit="10"/>
<path opacity="0.2" d="M14.2234 123.817L17.1927 163.317C18.373 179.015 30.2893 191.794 45.8683 194.064L244.443 223.012C265.036 226.014 283.384 209.775 282.903 188.969L281.31 119.836C280.889 101.529 265.894 86.9285 247.583 86.9904L47.6325 87.6776C28.1186 87.7415 12.7605 104.356 14.2234 123.817Z" fill="#231F20"/>
<path d="M3.90619 113.697L6.87547 153.198C8.05575 168.896 19.9721 181.675 35.551 183.947L234.125 212.893C254.719 215.895 273.067 199.656 272.586 178.85L270.993 109.717C270.572 91.4102 255.577 76.8094 237.266 76.8713L37.3152 77.5564C17.8013 77.6244 2.44322 94.2371 3.90619 113.697Z" fill="white"/>
<path d="M18.6678 57.5841V48.0015C18.6678 42.9791 19.2724 38.8605 20.4857 35.6436C21.697 32.4267 23.7666 29.6968 26.6987 27.4497C29.6288 25.2026 32.922 23.7046 36.5784 22.9556V30.6212C33.9785 32.1193 32.5032 34.1229 32.1503 36.6361H36.5784V57.5862L18.6678 57.5841ZM42.5913 57.5841V48.0015C42.5913 42.9791 43.1959 38.8605 44.4092 35.6436C45.6204 32.4267 47.6797 29.6968 50.5892 27.4497C53.4965 25.2026 56.8022 23.7046 60.5019 22.9556V30.6212C57.902 32.1193 56.4266 34.1229 56.0738 36.6361H60.5019V57.5862L42.5913 57.5841Z" fill="#00BF62"/>
<path d="M300.834 191.348V200.931C300.834 205.91 300.24 210.016 299.049 213.256C297.859 216.493 295.799 219.225 292.869 221.452C289.939 223.676 286.623 225.184 282.924 225.977V218.245C285.567 216.79 287.065 214.809 287.418 212.296H282.924V191.346H300.834V191.348ZM324.758 191.348V200.931C324.758 205.91 324.163 210.016 322.973 213.256C321.784 216.493 319.723 219.225 316.793 221.452C313.863 223.676 310.547 225.184 306.847 225.977V218.245C309.447 216.79 310.922 214.809 311.275 212.296H306.847V191.346H324.758V191.348Z" fill="#00BF62"/>
<path d="M128.764 88.8677L132.055 93.6672L137.637 95.3138L134.088 99.9256L134.248 105.742L128.764 103.792L123.281 105.742L123.442 99.9256L119.893 95.3138L125.475 93.6672L128.764 88.8677Z" fill="#231F20"/>
<path d="M152.745 88.8677L156.034 93.6672L161.616 95.3138L158.067 99.9256L158.228 105.742L152.745 103.792L147.26 105.742L147.421 99.9256L143.872 95.3138L149.454 93.6672L152.745 88.8677Z" fill="#231F20"/>
<path d="M80.8055 88.8677L84.0946 93.6672L89.6762 95.3138L86.1292 99.9256L86.2881 105.742L80.8055 103.792L75.3209 105.742L75.4818 99.9256L71.9327 95.3138L77.5143 93.6672L80.8055 88.8677Z" fill="#231F20"/>
<path d="M104.785 88.8677L108.074 93.6672L113.657 95.3138L110.108 99.9256L110.267 105.742L104.785 103.792L99.3021 105.742L99.461 99.9256L95.9119 95.3138L101.496 93.6672L104.785 88.8677Z" fill="#231F20"/>
<path d="M176.724 88.8677L180.013 93.6672L185.597 95.3138L182.048 99.9256L182.207 105.742L176.724 103.792L171.242 105.742L171.401 99.9256L167.851 95.3138L173.435 93.6672L176.724 88.8677Z" fill="#231F20"/>
<path d="M127.831 87L131.122 91.8016L136.704 93.4462L133.155 98.06L133.316 103.877L127.831 101.927L122.349 103.877L122.507 98.06L118.96 93.4462L124.542 91.8016L127.831 87Z" fill="#FFD449"/>
<path d="M151.812 87L155.101 91.8016L160.683 93.4462L157.134 98.06L157.295 103.877L151.812 101.927L146.328 103.877L146.489 98.06L142.94 93.4462L148.521 91.8016L151.812 87Z" fill="#FFD449"/>
<path d="M79.8728 87L83.1619 91.8016L88.7435 93.4462L85.1944 98.06L85.3553 103.877L79.8728 101.927L74.3882 103.877L74.5491 98.06L71 93.4462L76.5816 91.8016L79.8728 87Z" fill="#FFD449"/>
<path d="M103.852 87L107.141 91.8016L112.725 93.4462L109.176 98.06L109.334 103.877L103.852 101.927L98.3693 103.877L98.5282 98.06L94.9791 93.4462L100.561 91.8016L103.852 87Z" fill="#FFD449"/>
<path d="M175.791 87L179.081 91.8016L184.664 93.4462L181.115 98.06L181.274 103.877L175.791 101.927L170.309 103.877L170.468 98.06L166.919 93.4462L172.5 91.8016L175.791 87Z" fill="#FFD449"/>
</svg>
